<svg viewBox="0 0 70 50" xml:space="preserve" xmlns="http://www.w3.org/2000/svg" enable-background="new 0 0 70 50"><path d="M10 40H5c-2.762 0-5 2.238-5 5s2.238 5 5 5h5c2.762 0 5-2.238 5-5s-2.238-5-5-5zm0-20H5c-2.762 0-5 2.238-5 5s2.238 5 5 5h5c2.762 0 5-2.238 5-5s-2.238-5-5-5zm0-20H5C2.238 0 0 2.238 0 5s2.238 5 5 5h5c2.762 0 5-2.238 5-5s-2.238-5-5-5zm20 10h35c2.762 0 5-2.238 5-5s-2.238-5-5-5H30c-2.762 0-5 2.238-5 5s2.238 5 5 5zm35 10H30c-2.762 0-5 2.238-5 5s2.238 5 5 5h35c2.762 0 5-2.238 5-5s-2.238-5-5-5zm0 20H30c-2.762 0-5 2.238-5 5s2.238 5 5 5h35c2.762 0 5-2.238 5-5s-2.238-5-5-5z" fill="#3f4e4f" class="fill-000000"></path></svg>