<svg id="Layer_1" version="1.1" viewBox="0 0 30.5 30.2" xml:space="preserve" xmlns="http://www.w3.org/2000/svg" enable-background="new 0 0 30.5 30.2"><path d="M21.4 18.8c.6-.3.9-.4 1.7-.4 2.4 0 4.3 1.9 4.3 4.3S25.5 27 23.1 27s-4.3-1.9-4.3-4.3c0-.4 0-2.1.3-2.4l-8.4-4.4c-.6 1.5-2.2 2.8-4 2.8-2.4 0-4.3-1.9-4.3-4.3s1.9-4.3 4.3-4.3c.9 0 1.9.5 2.3.7.4.2 1.5 1.4 1.5 1.4l8.3-6c0-2.4 1.9-4.3 4.3-4.3s4.3 1.9 4.3 4.3-1.9 4.3-4.3 4.3c-1.2 0-2.3-.5-3-1.3" fill="none" stroke="#3f4e4f" stroke-width="1.25" stroke-linecap="round" stroke-linejoin="round" stroke-miterlimit="10" class="stroke-414042"></path></svg>